<svg width="205" height="90" viewBox="0 0 205 90" fill="none" xmlns="http://www.w3.org/2000/svg">
<g clip-path="url(#clip0_2_16)">
<path d="M12.2159 2.00003C8.97389 2.03231 5.87568 3.33925 3.59465 5.63678C1.31363 7.93431 0.0341484 11.0367 0.03431 14.2698C0.0340367 16.3967 0.58825 18.4872 1.64258 20.3362C2.69691 22.1852 4.21513 23.7291 6.04832 24.8164V65.1452C4.20673 66.2304 2.68066 67.7756 1.62064 69.6283C0.560621 71.481 0.00327966 73.5773 0.00359498 75.7103C0.00278721 77.3221 0.320455 78.9183 0.93845 80.4076C1.55644 81.897 2.46266 83.2503 3.60531 84.3903C4.74796 85.5303 6.10467 86.4346 7.59791 87.0516C9.09116 87.6686 10.6917 87.9862 12.308 87.9862C13.9249 87.987 15.5261 87.67 17.0201 87.0534C18.514 86.4367 19.8714 85.5325 21.0147 84.3925C22.1581 83.2524 23.0648 81.8988 23.6832 80.409C24.3016 78.9193 24.6194 77.3226 24.6186 75.7103C24.6171 72.4731 23.3327 69.3677 21.0452 67.0706C21.9341 66.1257 22.7512 65.4157 23.4994 64.9361C25.1457 63.8803 26.7165 63.4296 29.796 63.4001C39.5326 63.3068 47.3158 58.2083 51.5115 51.6516C55.2016 45.8816 55.6715 40.2526 55.7293 37.015C57.5701 35.9293 59.0953 34.3839 60.1545 32.5313C61.2138 30.6786 61.7705 28.5826 61.7697 26.4499C61.7697 24.8381 61.4512 23.2421 60.8325 21.7531C60.2138 20.2641 59.3069 18.9112 58.1637 17.7718C57.0204 16.6323 55.6633 15.7287 54.1697 15.1124C52.6762 14.4962 51.0755 14.1794 49.4591 14.1802C49.4172 14.18 49.3753 14.18 49.3334 14.1802C46.0914 14.2125 42.9932 15.5194 40.7122 17.817C38.4312 20.1145 37.1517 23.2169 37.1518 26.4499C37.1515 28.6119 37.7239 30.7355 38.8113 32.6059C39.8987 34.4763 41.4624 36.0269 43.344 37.1009C43.3094 39.4481 43.0407 41.9536 41.0828 45.017C38.9689 48.3227 35.2936 50.9863 29.6752 51.0403C25.748 51.0782 21.9104 51.8251 18.5011 53.5629V24.8845C20.369 23.8069 21.9199 22.2584 22.9982 20.3943C24.0764 18.5302 24.644 16.4162 24.6441 14.2642C24.6441 12.6524 24.3256 11.0564 23.7069 9.5674C23.0881 8.07837 22.1812 6.72549 21.038 5.58607C19.8948 4.44664 18.5376 3.54298 17.0441 2.92673C15.5505 2.31048 13.9498 1.99371 12.3335 1.99451C12.2916 1.9943 12.2497 1.9943 12.2078 1.99451L12.2159 2.00003ZM12.1293 8.18088C12.2012 8.17963 12.2732 8.17963 12.3451 8.18088C13.9842 8.18088 15.556 8.83014 16.715 9.98582C17.8739 11.1415 18.525 12.7089 18.525 14.3433C18.5258 15.1531 18.3666 15.9551 18.0564 16.7035C17.7462 17.4519 17.2911 18.1319 16.7171 18.7048C16.1432 19.2777 15.4617 19.7322 14.7115 20.0422C13.9613 20.3523 13.1572 20.5119 12.3451 20.5119C11.5331 20.5119 10.729 20.3523 9.97879 20.0422C9.22862 19.7322 8.54708 19.2777 7.97315 18.7048C7.39921 18.1319 6.94413 17.4519 6.63393 16.7035C6.32372 15.9551 6.16447 15.1531 6.16528 14.3433C6.1643 12.7455 6.78572 11.2098 7.89843 10.0601C9.01115 8.91041 10.5282 8.23663 12.1295 8.18088H12.1293ZM49.2392 20.3648C49.3112 20.3635 49.3831 20.3635 49.4551 20.3648C51.0941 20.3648 52.6659 21.014 53.8249 22.1697C54.9838 23.3254 55.6349 24.8928 55.6349 26.5272C55.6357 27.337 55.4765 28.139 55.1663 28.8874C54.8561 29.6357 54.401 30.3158 53.8271 30.8887C53.2531 31.4616 52.5716 31.916 51.8214 32.2261C51.0712 32.5362 50.2671 32.6958 49.4551 32.6958C48.643 32.6958 47.8389 32.5362 47.0887 32.2261C46.3385 31.916 45.657 31.4616 45.0831 30.8887C44.5091 30.3158 44.0541 29.6357 43.7438 28.8874C43.4336 28.139 43.2744 27.337 43.2752 26.5272C43.2742 24.9301 43.895 23.395 45.0068 22.2454C46.1186 21.0958 47.6346 20.4216 49.2351 20.3648H49.2392ZM12.0924 69.6214C12.1644 69.6202 12.2363 69.6202 12.3083 69.6214C13.9473 69.6214 15.5192 70.2707 16.6781 71.4264C17.8371 72.5821 18.4882 74.1495 18.4882 75.7839C18.489 76.5937 18.3297 77.3957 18.0195 78.1441C17.7093 78.8924 17.2542 79.5725 16.6803 80.1454C16.1064 80.7183 15.4248 81.1727 14.6746 81.4828C13.9245 81.7929 13.1204 81.9525 12.3083 81.9525C11.4962 81.9525 10.6921 81.7929 9.94193 81.4828C9.19176 81.1727 8.51022 80.7183 7.93629 80.1454C7.36235 79.5725 6.90728 78.8924 6.59707 78.1441C6.28686 77.3957 6.12761 76.5937 6.12842 75.7839C6.12741 74.1868 6.74822 72.6517 7.86003 71.5021C8.97183 70.3525 10.4878 69.6783 12.0884 69.6214H12.0924Z" fill="white"/>
<path d="M53.6381 87.98C59.9214 87.98 65.015 82.8957 65.015 76.6239C65.015 70.3521 59.9214 65.2679 53.6381 65.2679C47.3548 65.2679 42.2612 70.3521 42.2612 76.6239C42.2612 82.8957 47.3548 87.98 53.6381 87.98Z" fill="white"/>
</g>
<path d="M202.258 42.343L203.601 32.5715C198.977 33.7684 195.25 34.3659 189.434 34.3659C183.096 34.3659 180.785 33.1032 180.785 30.2445C180.785 27.7862 182.797 26.3889 187.197 26.3889H195.696L196.889 17.2168H189.285C185.258 17.2168 182.052 16.5516 182.052 13.4944C182.052 10.9683 184.14 9.63876 189.807 9.63876C194.28 9.63876 197.785 10.503 201.513 11.6336L199.947 1.46315C195.92 0.398955 192.193 -8.27684e-06 187.868 -8.27684e-06C175.192 -8.27684e-06 169.004 5.45099 169.004 11.8322C169.004 16.1526 170.868 19.5429 175.416 21.2046C170.272 23.199 167.736 26.9219 167.736 31.5737C167.736 39.4843 173.776 43.8711 188.316 43.8711C193.684 43.8711 199.574 43.0069 202.258 42.343" fill="white"/>
<path d="M155.914 71.7079C155.914 76.3013 154.052 79.714 148.777 79.714C143.563 79.714 141.702 76.2381 141.702 71.7079V49.4265H130.592V72.1423C130.592 84.8037 137.977 89.7065 148.901 89.7065C159.638 89.7065 166.838 83.5625 166.838 72.1423V49.4265H155.914V71.7079Z" fill="white"/>
<path d="M193.336 79.556C186.688 79.556 181.985 75.3548 181.985 69.0834C181.985 62.3728 186.186 57.6704 193.587 57.6704C199.231 57.6704 203.307 60.555 204.31 61.5578L202.931 50.0197C200.422 48.7646 197.036 47.7618 192.458 47.7618C180.042 47.7618 170.823 56.4789 170.823 68.5195C170.823 81.8767 180.919 89.4646 193.022 89.4646C197.412 89.4646 200.924 88.3359 203.558 86.8929L205 74.7272C203.683 75.9187 199.857 79.556 193.336 79.556Z" fill="white"/>
<path d="M142.307 45.2519V31.5307H156.828L157.494 21.1393H142.307V12.8803H159.825L160.492 2.5561H130.518C120.793 2.5561 113 6.28663 113 15.7447C113 21.3396 115.864 25.2029 120.527 28.1337L127.654 21.8058C124.523 20.0742 123.124 18.2093 123.124 16.0778C123.124 12.8803 125.323 11.548 129.586 11.548H130.518V45.2519H142.307Z" fill="white"/>
<path d="M97.3934 50.7373V58.33H90.8816V50.7373H83.2889V44.2782H90.8816V36.6855H97.3934V44.2782H104.933V50.7373H97.3934Z" fill="white"/>
<defs>
<clipPath id="clip0_2_16">
<rect width="65" height="85.9677" fill="white" transform="translate(0 2)"/>
</clipPath>
</defs>
</svg>
