<svg width="400" height="530" version="1.1" viewBox="0 0 105.8 140.2" xmlns="http://www.w3.org/2000/svg">
 <style>g{fill:#000}@media(prefers-color-scheme:dark){g{fill:#fff}}</style>
 <g>
  <path d="m19.88.0002645a20.03 20.01 0 00-19.83 20.01 20.03 20.01 0 009.79 17.2v65.77a20.03 20.01 0 00-9.84 17.23 20.03 20.01 0 0020.03 20.02 20.03 20.01 0 0020.04-20.02 20.03 20.01 0 00-5.817-14.09c1.447-1.541 2.777-2.699 3.995-3.481 2.68-1.722 5.237-2.457 10.25-2.505 15.85-.1522 28.52-8.467 35.35-19.16 6.007-9.41 6.772-18.59 6.866-23.87a20.03 20.01 0 009.833-17.23 20.03 20.01 0 00-20.04-20.01 20.03 20.01 0 00-.2046 0 20.03 20.01 0 00-19.83 20.01 20.03 20.01 0 0010.08 17.37c-.0563 3.828-.4937 7.914-3.681 12.91-3.441 5.391-9.424 9.735-18.57 9.823-6.393.0619-12.64 1.28-18.19 4.114v-46.77a20.03 20.01 0 0010-17.32 20.03 20.01 0 00-20.04-20.01 20.03 20.01 0 00-.2046 0zm-.141 10.08a10.06 10.05 0 01.3514 0 10.06 10.05 0 0110.06 10.05 10.06 10.05 0 01-10.06 10.06 10.06 10.05 0 01-10.06-10.06 10.06 10.05 0 019.709-10.05zm60.41 19.87a10.06 10.05 0 01.3514 0 10.06 10.05 0 0110.06 10.05 10.06 10.05 0 01-10.06 10.06 10.06 10.05 0 01-10.06-10.06 10.06 10.05 0 019.702-10.05zm-60.47 80.33a10.06 10.05 0 01.3514 0 10.06 10.05 0 0110.06 10.05 10.06 10.05 0 01-10.06 10.06 10.06 10.05 0 01-10.06-10.06 10.06 10.05 0 019.702-10.05z"/>
  <circle cx="87.31" cy="121.7" r="18.52"/>
 </g>
</svg>
